<svg width="434" height="399" viewBox="0 0 434 399" fill="none" xmlns="http://www.w3.org/2000/svg">
<path d="M11.3101 206.15C11.3101 206.15 13.6601 279.15 74.5801 327.75C135.5 376.35 219.9 379.87 288.23 384.49C356.56 389.11 409 350.43 417 292C425 233.57 372.7 216.37 344.37 149.8C316.04 83.23 318.56 61.36 258.62 20.42C198.68 -20.52 104.86 4.56997 55.7001 74.71C6.54007 144.85 11.3101 206.15 11.3101 206.15Z" fill="#92E3A9"/>
<path opacity="0.7" d="M11.3101 206.15C11.3101 206.15 13.6601 279.15 74.5801 327.75C135.5 376.35 219.9 379.87 288.23 384.49C356.56 389.11 409 350.43 417 292C425 233.57 372.7 216.37 344.37 149.8C316.04 83.23 318.56 61.36 258.62 20.42C198.68 -20.52 104.86 4.56997 55.7001 74.71C6.54007 144.85 11.3101 206.15 11.3101 206.15Z" fill="white"/>
<path d="M308.49 355.21C348.365 355.21 380.69 345.62 380.69 333.79C380.69 321.96 348.365 312.37 308.49 312.37C268.615 312.37 236.29 321.96 236.29 333.79C236.29 345.62 268.615 355.21 308.49 355.21Z" fill="#263238" stroke="#263238" stroke-width="1.193" stroke-linecap="round" stroke-linejoin="round"/>
<path d="M308.49 322.22C342.64 322.22 371.24 329.22 378.75 338.71C379.936 337.337 380.62 335.603 380.69 333.79C380.69 321.95 348.36 312.36 308.49 312.36C268.62 312.36 236.28 321.95 236.28 333.79C236.35 335.603 237.034 337.337 238.22 338.71C245.73 329.26 274.33 322.22 308.49 322.22Z" fill="white" stroke="#263238" stroke-width="1.193" stroke-linecap="round" stroke-linejoin="round"/>
<path d="M298.63 352.52C274.51 351.43 256.31 346.52 256.31 340.52C256.323 339.865 256.528 339.229 256.9 338.69" stroke="white" stroke-width="1.193" stroke-linecap="round" stroke-linejoin="round"/>
<path d="M354.6 334.68C358.73 336.43 361.09 338.43 361.09 340.56C361.09 347.29 337.63 352.74 308.7 352.74H307.45" stroke="white" stroke-width="1.193" stroke-linecap="round" stroke-linejoin="round"/>
<path d="M263.36 334.45C272.43 330.82 289.36 328.37 308.7 328.37C319.705 328.285 330.696 329.185 341.54 331.06" stroke="white" stroke-width="1.193" stroke-linecap="round" stroke-linejoin="round"/>
<path d="M297.94 344.74C291.83 343.89 287.74 342.34 287.74 340.56C287.74 337.87 297.13 335.69 308.74 335.69C320.35 335.69 329.69 337.87 329.69 340.56C329.69 342.87 322.79 344.8 313.53 345.3" stroke="white" stroke-width="1.193" stroke-linecap="round" stroke-linejoin="round"/>
<path d="M18.52 247.68C50.01 238.73 116.27 221.07 152.84 219.74C202 218 285 253.68 336.82 259.93C388.64 266.18 423.46 264.4 423.46 264.4" stroke="#263238" stroke-width="1.193" stroke-linecap="round" stroke-linejoin="round"/>
<path d="M1 252.79C1 252.79 3.72 251.96 8.49 250.57" stroke="#263238" stroke-width="1.193" stroke-linecap="round" stroke-linejoin="round"/>
<path d="M409.47 197.12C391.318 193.133 372.747 191.376 354.17 191.89C315.75 193.18 274.17 198.26 222.76 204.89C171.35 211.52 98.1399 174.89 48.3599 188.48C-1.4201 202.07 2.3599 206.16 2.3599 206.16" stroke="#263238" stroke-width="1.193" stroke-linecap="round" stroke-linejoin="round"/>
<path d="M423.63 200.8C423.63 200.8 421.69 200.16 418.18 199.23" stroke="#263238" stroke-width="1.193" stroke-linecap="round" stroke-linejoin="round"/>
<path d="M331.45 106.35C330.897 104.102 329.606 102.105 327.784 100.678C325.963 99.2498 323.715 98.4739 321.4 98.4739C319.085 98.4739 316.838 99.2498 315.016 100.678C313.194 102.105 311.903 104.102 311.35 106.35H331.45Z" stroke="#263238" stroke-width="1.193" stroke-linecap="round" stroke-linejoin="round"/>
<path d="M433 106.35C432.393 103.789 431.011 101.477 429.042 99.7284C427.074 97.9803 424.615 96.881 422 96.5801C422.822 92.236 422.674 87.7638 421.567 83.4836C420.459 79.2034 418.419 75.2209 415.593 71.8211C412.766 68.4214 409.223 65.6884 405.217 63.8176C401.211 61.9469 396.841 60.9848 392.42 61.0001C385.36 61.0003 378.525 63.4839 373.112 68.0161C367.698 72.5482 364.052 78.84 362.81 85.7901C359.971 83.5699 356.565 82.1927 352.981 81.8156C349.396 81.4386 345.778 82.0769 342.54 83.6578C339.301 85.2386 336.572 87.6982 334.664 90.7559C332.756 93.8135 331.746 97.346 331.75 100.95C331.756 102.785 332.022 104.61 332.54 106.37L433 106.35Z" stroke="#263238" stroke-width="1.193" stroke-linecap="round" stroke-linejoin="round"/>
<path d="M152.57 130.49C152.295 129.343 151.642 128.323 150.715 127.593C149.789 126.863 148.644 126.465 147.465 126.465C146.286 126.465 145.141 126.863 144.215 127.593C143.289 128.323 142.635 129.343 142.36 130.49H152.57Z" stroke="#263238" stroke-width="1.193" stroke-linecap="round" stroke-linejoin="round"/>
<path d="M204.12 130.49C203.816 129.183 203.116 128.001 202.116 127.106C201.115 126.211 199.863 125.647 198.53 125.49C199.011 123.473 199.076 121.378 198.721 119.335C198.367 117.292 197.599 115.342 196.466 113.605C195.333 111.868 193.858 110.38 192.131 109.232C190.404 108.083 188.461 107.299 186.421 106.926C184.38 106.554 182.286 106.6 180.264 107.064C178.243 107.527 176.337 108.398 174.663 109.622C172.988 110.846 171.581 112.399 170.527 114.185C169.473 115.971 168.793 117.953 168.53 120.01C167.089 118.884 165.36 118.185 163.541 117.994C161.722 117.802 159.886 118.126 158.242 118.928C156.598 119.729 155.213 120.977 154.243 122.528C153.274 124.079 152.76 125.871 152.76 127.7C152.765 128.634 152.899 129.563 153.16 130.46L204.12 130.49Z" stroke="#263238" stroke-width="1.193" stroke-linecap="round" stroke-linejoin="round"/>
<path d="M198.93 146.63C198.758 145.906 198.346 145.261 197.762 144.799C197.178 144.338 196.455 144.087 195.71 144.087C194.966 144.087 194.243 144.338 193.659 144.799C193.074 145.261 192.663 145.906 192.49 146.63H198.93Z" stroke="#263238" stroke-width="1.193" stroke-linecap="round" stroke-linejoin="round"/>
<path d="M231.47 146.63C231.276 145.808 230.832 145.067 230.2 144.506C229.569 143.946 228.779 143.595 227.94 143.5C228.049 142.916 228.102 142.324 228.1 141.73C228.07 139.345 227.157 137.055 225.537 135.304C223.918 133.553 221.706 132.465 219.33 132.25C216.955 132.034 214.584 132.708 212.676 134.139C210.767 135.571 209.458 137.659 209 140C208.09 139.29 206.999 138.85 205.851 138.729C204.703 138.609 203.544 138.814 202.507 139.321C201.469 139.828 200.595 140.616 199.984 141.595C199.373 142.574 199.049 143.706 199.05 144.86C199.051 145.449 199.135 146.035 199.3 146.6L231.47 146.63Z" stroke="#263238" stroke-width="1.193" stroke-linecap="round" stroke-linejoin="round"/>
<path d="M129.65 261.83C129.298 261.835 128.952 261.741 128.65 261.56C128.213 261.29 127.896 260.862 127.766 260.365C127.635 259.868 127.701 259.34 127.95 258.89C128.44 258.03 252.08 123.2 308.65 73.76C308.847 73.6015 309.097 73.5237 309.35 73.5422C309.602 73.5608 309.838 73.6744 310.01 73.86C310.174 74.0586 310.256 74.313 310.237 74.5701C310.219 74.8272 310.101 75.0672 309.91 75.24C253.62 124.47 131.81 260 131.32 260.85C131.153 261.147 130.911 261.394 130.618 261.566C130.324 261.738 129.99 261.829 129.65 261.83Z" fill="#263238"/>
<path d="M136.48 235C136.48 235 142.61 228.46 146.29 228.46C149.97 228.46 156.92 234.59 156.51 237.86C156.1 241.13 149.97 238.27 149.97 238.27C149.97 238.27 144.24 246.04 138.52 244.81C132.8 243.58 136.48 235 136.48 235Z" fill="#92E3A9" stroke="#263238" stroke-width="1.193" stroke-linecap="round" stroke-linejoin="round"/>
<path d="M150 238.25C150 238.25 153.75 240.85 154.08 242.68C154.41 244.51 149.92 249.68 144.93 250.84C139.94 252 137.27 249.17 138.77 246.51C140.27 243.85 146.22 238.49 150 238.25Z" fill="#92E3A9" stroke="#263238" stroke-width="1.193" stroke-linecap="round" stroke-linejoin="round"/>
<path d="M304 214.56V79.27C304 79.27 301.27 89.06 301.27 89.77" stroke="#263238" stroke-width="1.193" stroke-linecap="round" stroke-linejoin="round"/>
<path d="M360.42 221.69H256.68V304.81H360.42V221.69Z" fill="#92E3A9" stroke="#263238" stroke-width="1.193" stroke-linecap="round" stroke-linejoin="round"/>
<path d="M305.48 221.34V216.58C305.48 216.264 305.354 215.962 305.131 215.739C304.908 215.515 304.605 215.39 304.29 215.39C303.974 215.39 303.672 215.515 303.448 215.739C303.225 215.962 303.1 216.264 303.1 216.58V221.34H305.48Z" fill="#263238"/>
<path d="M315 209.76V210C314.903 209.818 314.759 209.665 314.584 209.558C314.408 209.451 314.206 209.393 314 209.39C313.682 209.39 313.377 209.516 313.151 209.741C312.926 209.967 312.8 210.272 312.8 210.59V223.3C312.8 224.272 312.415 225.204 311.729 225.892C311.043 226.58 310.112 226.967 309.14 226.97C308.637 226.971 308.139 226.865 307.68 226.66C307.415 227.055 307.299 227.532 307.354 228.005C307.409 228.478 307.631 228.916 307.98 229.24C308.363 229.312 308.751 229.349 309.14 229.35C309.935 229.35 310.721 229.194 311.455 228.889C312.189 228.585 312.856 228.14 313.418 227.578C313.98 227.016 314.425 226.349 314.729 225.615C315.034 224.881 315.19 224.094 315.19 223.3V217.41H317.93L315 209.76Z" fill="#263238"/>
<path d="M304.1 78C304.1 78 306.22 70.47 304.34 71.17C302.46 71.87 304.1 78 304.1 78Z" stroke="#263238" stroke-width="1.193" stroke-linecap="round" stroke-linejoin="round"/>
<path d="M304.1 78C304.1 78 296.1 75.17 296.81 77.76C297.52 80.35 304.1 78 304.1 78Z" stroke="#263238" stroke-width="1.193" stroke-linecap="round" stroke-linejoin="round"/>
<path d="M131.59 143.63C131.59 143.63 121.72 138.1 102.36 140.87C82.9999 143.64 79.3099 159.6 82.4699 176.19C85.6299 192.78 103.94 206.83 106.71 205.65C109.48 204.47 105.92 167.33 112.24 160.22C118.56 153.11 139.1 154.3 140.24 148.77C141.38 143.24 131.59 143.63 131.59 143.63Z" fill="#263238" stroke="#263238" stroke-width="1.193" stroke-linecap="round" stroke-linejoin="round"/>
<path d="M97.18 153.48L99.18 166.55C99.18 166.55 86.78 200.4 88.79 205.1C90.8 209.8 109.56 211.46 109.56 211.46C109.56 211.46 140.06 215.15 149.11 211.46C158.16 207.77 153.47 197.05 152.46 194.04C151.45 191.03 145.76 166.89 145.76 166.89C145.76 166.89 147.76 161.19 147.76 158.18C147.76 155.17 147.42 146.78 146.08 144.77C144.74 142.76 121.28 140.41 110.89 142.09C100.5 143.77 95.84 146.45 97.18 153.48Z" fill="#757575" stroke="#263238" stroke-width="1.193" stroke-linecap="round" stroke-linejoin="round"/>
<path d="M102.55 168.57C102.55 168.57 102.21 197.72 103.89 203.42C105.57 209.12 112.27 215.82 126.34 214.14C140.41 212.46 141.76 199.06 141.76 199.06L140.76 167.9L102.55 168.57Z" fill="white" stroke="#263238" stroke-width="1.193" stroke-linecap="round" stroke-linejoin="round"/>
<path d="M126.68 189.51C126.682 190.009 126.536 190.497 126.26 190.913C125.984 191.328 125.591 191.653 125.131 191.845C124.671 192.038 124.164 192.089 123.674 191.993C123.185 191.897 122.735 191.657 122.382 191.305C122.028 190.953 121.787 190.504 121.689 190.015C121.591 189.526 121.64 189.019 121.831 188.558C122.021 188.097 122.344 187.703 122.759 187.425C123.173 187.148 123.661 187 124.16 187C124.49 186.999 124.818 187.063 125.123 187.188C125.429 187.314 125.707 187.498 125.941 187.732C126.175 187.965 126.361 188.242 126.488 188.547C126.615 188.852 126.68 189.18 126.68 189.51Z" stroke="#263238" stroke-width="1.193" stroke-miterlimit="10"/>
<path d="M126.34 200.07C126.34 200.403 126.241 200.728 126.056 201.004C125.871 201.281 125.608 201.496 125.301 201.623C124.993 201.75 124.655 201.783 124.329 201.717C124.002 201.651 123.703 201.49 123.468 201.254C123.234 201.018 123.075 200.718 123.011 200.392C122.947 200.065 122.982 199.727 123.111 199.42C123.239 199.113 123.456 198.852 123.734 198.668C124.011 198.485 124.337 198.388 124.67 198.39C124.89 198.39 125.108 198.433 125.311 198.518C125.515 198.603 125.699 198.726 125.854 198.883C126.01 199.039 126.132 199.224 126.216 199.428C126.299 199.632 126.341 199.85 126.34 200.07V200.07Z" fill="#263238"/>
<path d="M116.22 178.76C117.29 179.92 117.66 181.31 117.06 181.88C116.46 182.45 115.06 181.97 114.01 180.82C112.96 179.67 112.56 178.28 113.17 177.71C113.78 177.14 115.15 177.61 116.22 178.76Z" fill="#263238"/>
<path d="M129.83 178.76C128.76 179.92 128.38 181.31 128.99 181.88C129.6 182.45 130.99 181.97 131.99 180.82C132.99 179.67 133.44 178.28 132.83 177.71C132.22 177.14 130.9 177.61 129.83 178.76Z" fill="#263238"/>
<path d="M109.06 174.81C109.811 173.702 110.89 172.857 112.145 172.395C113.401 171.932 114.77 171.874 116.06 172.23" stroke="#263238" stroke-width="1.193" stroke-linecap="round" stroke-linejoin="round"/>
<path d="M129.3 172.6C129.3 172.6 134.08 171.13 135.56 175.18" stroke="#263238" stroke-width="1.193" stroke-linecap="round" stroke-linejoin="round"/>
<path d="M145.44 359.62C145.44 359.62 150.71 356.46 153.63 355.22C153.904 355.094 154.184 354.984 154.47 354.89C157.05 354.03 164.36 354.46 171.23 350.16C178.1 345.86 174.67 340.7 169.51 339.41C164.35 338.12 158.77 336.41 158.77 336.41L157.48 316.2C157.48 316.2 142 320.5 136.84 322.65C131.68 324.8 134.69 355.32 135.12 357.9C135.55 360.48 135.55 362.2 145.44 359.62Z" fill="#263238" stroke="#263238" stroke-width="1.193" stroke-linecap="round" stroke-linejoin="round"/>
<path d="M162.64 350.16C153.64 351.88 153.64 353.6 143.72 355.32C140.814 355.9 137.851 356.142 134.89 356.04C134.99 356.96 135.07 357.61 135.12 357.9C135.55 360.48 135.55 362.2 145.44 359.62C145.44 359.62 150.71 356.46 153.63 355.22C153.903 355.094 154.184 354.984 154.47 354.89C157.05 354.03 164.36 354.46 171.23 350.16C173.44 348.79 174.57 347.32 174.94 345.92C171.035 347.847 166.902 349.272 162.64 350.16Z" fill="white" stroke="#263238" stroke-width="1.193" stroke-linecap="round" stroke-linejoin="round"/>
<path d="M166.22 339.15C166.22 339.15 165.89 362.61 165.22 367.63C164.55 372.65 165.55 379.03 173.22 379.03C180.89 379.03 196.01 374.03 201.37 373.03C206.73 372.03 215.45 369.67 219.13 361.3C222.81 352.93 200.37 353.92 200.37 353.92L201.71 336.83C201.71 336.83 178.62 341.49 166.22 339.15Z" fill="#263238" stroke="#263238" stroke-width="1.193" stroke-linecap="round" stroke-linejoin="round"/>
<path d="M219.17 361.27C219.58 360.457 219.68 359.522 219.45 358.64C217.153 361.759 214.038 364.181 210.45 365.64C202.45 368.99 187.32 372.64 175.93 374.36C170.72 375.12 167.42 374.27 165.35 373.13C166.09 376.38 168.26 379.05 173.25 379.05C180.96 379.05 196.04 374.05 201.4 373.05C206.76 372.05 215.49 369.64 219.17 361.27Z" fill="white" stroke="#263238" stroke-width="1.193" stroke-linecap="round" stroke-linejoin="round"/>
<path d="M200.41 353.89C200.41 353.89 202.08 359.59 197.41 363.28" stroke="white" stroke-width="1.193" stroke-linecap="round" stroke-linejoin="round"/>
<path d="M163.88 326.75C163.88 326.75 163.36 336.94 163.93 338.98C166.07 346.72 166.75 344.91 182.84 344.57C198.93 344.23 205.43 337.81 207.11 333.79C208.79 329.77 207.11 321.05 206.44 318.03C205.77 315.01 200.44 314.03 198.39 314.35C196.34 314.67 164.88 323.4 163.88 326.75Z" fill="#757575" stroke="#263238" stroke-width="1.193" stroke-linecap="round" stroke-linejoin="round"/>
<path d="M53.28 352.22V374.74C53.2875 375.621 53.5354 376.484 53.9972 377.235C54.4589 377.985 55.1168 378.596 55.9 379L92.1 397.69C92.7441 398.025 93.4556 398.21 94.1813 398.23C94.9069 398.251 95.6278 398.107 96.29 397.81L149.62 377.48C150.471 377.099 151.193 376.479 151.701 375.697C152.208 374.915 152.479 374.002 152.48 373.07V345.85L91.48 364.28L53.28 352.22Z" fill="#92E3A9"/>
<path opacity="0.18" d="M94.17 363.47L91.49 364.28L53.28 352.22V374.74C53.2875 375.621 53.5354 376.484 53.9972 377.235C54.4589 377.985 55.1168 378.596 55.9 379L92.1 397.69C92.7401 398.025 93.448 398.209 94.17 398.23V363.47Z" fill="black"/>
<path d="M53.28 352.22V374.74C53.2875 375.621 53.5354 376.484 53.9972 377.235C54.4589 377.985 55.1168 378.596 55.9 379L92.1 397.69C92.7441 398.025 93.4556 398.21 94.1813 398.23C94.9069 398.251 95.6278 398.107 96.29 397.81L149.62 377.48C150.471 377.099 151.193 376.479 151.701 375.697C152.208 374.915 152.479 374.002 152.48 373.07V345.85L91.48 364.28L53.28 352.22Z" stroke="#263238" stroke-width="1.193" stroke-linecap="round" stroke-linejoin="round"/>
<path d="M109 314.2L50.4999 333C50.0427 333.147 49.6441 333.435 49.3618 333.823C49.0795 334.212 48.9283 334.68 48.9299 335.16V351.84C48.9388 352.26 49.0641 352.669 49.2918 353.023C49.5196 353.376 49.8409 353.659 50.2199 353.84L90.9999 373.25C91.2745 373.381 91.5727 373.456 91.8768 373.47C92.1809 373.484 92.4846 373.436 92.7699 373.33L154 350.42C154.433 350.259 154.807 349.97 155.071 349.591C155.336 349.212 155.478 348.762 155.48 348.3L155.59 332.65C155.587 332.132 155.408 331.631 155.083 331.227C154.758 330.824 154.305 330.543 153.8 330.43L110.16 314.14C109.774 314.063 109.376 314.084 109 314.2V314.2Z" fill="white"/>
<path d="M90.9299 373.24C91.2045 373.371 91.5027 373.446 91.8068 373.46C92.1109 373.473 92.4146 373.426 92.6999 373.32L154 350.42C154.433 350.259 154.807 349.97 155.071 349.591C155.336 349.212 155.478 348.762 155.48 348.3L155.59 332.65C155.591 332.117 155.4 331.602 155.05 331.2L91.7999 354.56L90.9299 373.24Z" fill="#92E3A9"/>
<path opacity="0.5" d="M90.9299 373.24C91.2045 373.371 91.5027 373.446 91.8068 373.46C92.1109 373.473 92.4146 373.426 92.6999 373.32L154 350.42C154.433 350.259 154.807 349.97 155.071 349.591C155.336 349.212 155.478 348.762 155.48 348.3L155.59 332.65C155.591 332.117 155.4 331.602 155.05 331.2L91.7999 354.56L90.9299 373.24Z" fill="white"/>
<path d="M48.9299 335.11V351.79C48.9388 352.21 49.0641 352.619 49.2918 352.973C49.5196 353.326 49.8409 353.609 50.2199 353.79L90.9999 373.25C91.2721 373.381 91.5681 373.456 91.8699 373.47V354.56L48.9999 334.72C48.9612 334.847 48.9377 334.978 48.9299 335.11V335.11Z" fill="#92E3A9"/>
<path d="M109 314.2L50.4999 333C50.0427 333.147 49.6441 333.435 49.3618 333.823C49.0795 334.212 48.9283 334.68 48.9299 335.16V351.84C48.9388 352.26 49.0641 352.669 49.2918 353.023C49.5196 353.376 49.8409 353.659 50.2199 353.84L90.9999 373.25C91.2745 373.381 91.5727 373.456 91.8768 373.47C92.1809 373.484 92.4846 373.436 92.7699 373.33L154 350.42C154.433 350.259 154.807 349.97 155.071 349.591C155.336 349.212 155.478 348.762 155.48 348.3L155.59 332.65C155.587 332.132 155.408 331.631 155.083 331.227C154.758 330.824 154.305 330.543 153.8 330.43L110.16 314.14C109.774 314.063 109.376 314.084 109 314.2V314.2Z" stroke="#263238" stroke-width="1.193" stroke-linecap="round" stroke-linejoin="round"/>
<path d="M189.35 283.52C189.35 283.52 197.05 287.2 201.08 294.58C205.11 301.96 202.08 316.02 199.73 320.38C197.38 324.74 181.64 326.75 176.28 326.75C170.92 326.75 169.91 326.08 169.91 326.08C169.91 326.08 152.82 329.43 142.09 331.44C131.36 333.45 134.09 308.32 137.4 296.92C140.71 285.52 159.52 279.83 167.23 279.83C174.94 279.83 189.35 283.52 189.35 283.52Z" fill="#263238" stroke="#263238" stroke-width="1.193" stroke-linecap="round" stroke-linejoin="round"/>
<path d="M169.91 326.08C169.91 326.08 184.32 321.08 190.35 308.32" stroke="white" stroke-width="1.193" stroke-linecap="round" stroke-linejoin="round"/>
<path d="M183.65 318.7C188.294 316.753 192.507 313.909 196.05 310.33" stroke="white" stroke-width="1.193" stroke-linecap="round" stroke-linejoin="round"/>
<path d="M149.8 294.58C149.8 294.58 153.8 315.69 151.8 324.4C149.8 333.11 138.06 334.46 135.38 333.45C132.7 332.44 134.04 311.67 134.04 301.28C134.04 290.89 144.44 291.56 149.8 294.58Z" fill="#757575" stroke="#263238" stroke-width="1.193" stroke-linecap="round" stroke-linejoin="round"/>
<path d="M64.3399 238.27C64.3399 238.27 61.9999 252 63.6699 258.72C64.5207 262.463 66.1156 265.996 68.3599 269.11C68.3599 269.11 59.9799 281.51 61.6599 291.89C63.3399 302.27 67.6599 303.62 67.6599 303.62C67.6599 303.62 63.9799 322.73 70.6599 329.43C77.3399 336.13 92.1099 343.5 108.53 340.49C124.95 337.48 136.01 336.8 139.36 331.1C142.71 325.4 140.7 300.27 140.7 300.27C140.7 300.27 140.03 272.46 139.36 255.36C138.69 238.26 136.36 224.53 128.3 217.83C120.24 211.13 84.7299 221.52 74.0099 228.55C63.2899 235.58 64.3399 238.27 64.3399 238.27Z" fill="#92E3A9"/>
<path opacity="0.3" d="M66.73 238.27C66.73 238.27 64.38 252.01 66.06 258.72C66.9058 262.464 68.5012 265.999 70.75 269.11C70.75 269.11 62.37 281.51 64.05 291.89C65.73 302.27 70.05 303.62 70.05 303.62C70.05 303.62 66.36 322.73 73.05 329.43C79.74 336.13 94.54 343.5 111 340.49C127.46 337.48 138.49 336.8 141.84 331.1C145.19 325.4 143.18 300.27 143.18 300.27C143.18 300.27 142.51 272.46 141.84 255.36C141.17 238.26 138.84 224.53 130.78 217.83C122.72 211.13 87.21 221.52 76.49 228.55C65.77 235.58 66.73 238.27 66.73 238.27Z" fill="black"/>
<path d="M64.3399 238.27C64.3399 238.27 61.9999 252 63.6699 258.72C64.5207 262.463 66.1156 265.996 68.3599 269.11C68.3599 269.11 59.9799 281.51 61.6599 291.89C63.3399 302.27 67.6599 303.62 67.6599 303.62C67.6599 303.62 63.9799 322.73 70.6599 329.43C77.3399 336.13 92.1099 343.5 108.53 340.49C124.95 337.48 136.01 336.8 139.36 331.1C142.71 325.4 140.7 300.27 140.7 300.27C140.7 300.27 140.03 272.46 139.36 255.36C138.69 238.26 136.36 224.53 128.3 217.83C120.24 211.13 84.7299 221.52 74.0099 228.55C63.2899 235.58 64.3399 238.27 64.3399 238.27Z" stroke="#263238" stroke-width="1.193" stroke-linecap="round" stroke-linejoin="round"/>
<path d="M68.3599 269.11C73.5482 272.649 79.484 274.942 85.7044 275.809C91.9247 276.676 98.2613 276.095 104.22 274.11" stroke="#263238" stroke-width="1.193" stroke-linecap="round" stroke-linejoin="round"/>
<path d="M67.6899 303.62C67.6899 303.62 84.7799 320.38 112.94 304.29" stroke="#263238" stroke-width="1.193" stroke-linecap="round" stroke-linejoin="round"/>
<path d="M134.38 221.85C134.38 221.85 128.02 212.13 119.3 206.77C110.58 201.41 88.1399 197.39 79.0899 195.71C70.0399 194.03 60.32 194.71 57.64 204.71C54.96 214.71 55.29 231.52 57.97 238.89C60.65 246.26 71.71 250.62 80.43 245.6C89.15 240.58 113.27 221.13 121.65 220.13C130.03 219.13 133.71 225.54 134.38 221.85Z" fill="#757575"/>
<path opacity="0.3" d="M115.79 220C120.9 217.87 108.12 221.7 107.27 220.42C106.42 219.14 116.21 212.76 118.34 211.91C120.47 211.06 105.99 214.04 106.42 211.91C106.85 209.78 120.47 209.35 111.1 207.22C101.73 205.09 71.1 199.55 65.1 197.42C64.641 197.271 64.2064 197.055 63.81 196.78C62.2584 197.58 60.9016 198.712 59.8355 200.094C58.7693 201.476 58.0198 203.076 57.64 204.78C54.96 214.83 55.29 231.59 57.97 238.96C60.31 245.38 68.97 249.51 76.97 247.16C80.66 244.16 84.07 240.22 89.84 236.59C101.31 229.33 110.68 222.09 115.79 220Z" fill="black"/>
<path d="M134.38 221.85C134.38 221.85 128.02 212.13 119.3 206.77C110.58 201.41 88.1399 197.39 79.0899 195.71C70.0399 194.03 60.32 194.71 57.64 204.71C54.96 214.71 55.29 231.52 57.97 238.89C60.65 246.26 71.71 250.62 80.43 245.6C89.15 240.58 113.27 221.13 121.65 220.13C130.03 219.13 133.71 225.54 134.38 221.85Z" stroke="#263238" stroke-width="1.193" stroke-linecap="round" stroke-linejoin="round"/>
<path d="M170.58 267.43C170.58 267.43 178.29 268.43 183.31 270.43C188.33 272.43 191.69 284.84 189.68 286.51C187.67 288.18 183.68 286.18 183.68 286.18C180.528 287.289 177.271 288.073 173.96 288.52C169.91 288.88 165.55 269.78 170.58 267.43Z" fill="#92E3A9" stroke="#263238" stroke-width="1.193" stroke-linecap="round" stroke-linejoin="round"/>
<path d="M145.11 266.42C145.11 266.42 146.45 266.42 153.82 263.07C161.19 259.72 167.23 259.72 171.92 267.07C176.61 274.42 178.62 283.5 175.92 288.86C173.22 294.22 163.19 297.91 157.82 297.91C152.45 297.91 151.82 290.91 151.82 290.91C151.82 290.91 151.15 279.85 147.82 275.83C144.49 271.81 143.77 267.43 145.11 266.42Z" fill="#757575" stroke="#263238" stroke-width="1.193" stroke-linecap="round" stroke-linejoin="round"/>
<path d="M120.31 221.85C127.68 219.17 137.07 220.85 140.42 230.23C143.77 239.61 146.78 267.09 146.78 267.09C146.78 267.09 155.16 268.09 158.51 271.79C161.86 275.49 163.51 284.86 162.87 289.55C162.23 294.24 150.47 302.95 137.07 303.29C123.67 303.63 113.94 297.29 109.25 280.16C104.56 263.03 106.42 237 106.42 237C106.42 237 108.12 229.33 110.68 227.62" fill="#92E3A9"/>
<path opacity="0.3" d="M162.87 289.55C163.54 284.86 161.87 275.47 158.51 271.79C158.38 271.64 158.22 271.5 158.08 271.36C158.482 274.372 158.722 277.403 158.8 280.44C159.47 300.11 131.98 296.82 126.44 282.57C123.44 274.9 122.6 241.25 113.66 238.7C108.5 237.23 106.74 241.27 106.18 244.96C106 254.61 106.32 269.48 109.25 280.16C113.94 297.26 123.66 303.62 137.07 303.29C150.48 302.96 162.2 294.24 162.87 289.55Z" fill="black"/>
<path d="M120.31 221.85C127.68 219.17 137.07 220.85 140.42 230.23C143.77 239.61 146.78 267.09 146.78 267.09C146.78 267.09 155.16 268.09 158.51 271.79C161.86 275.49 163.51 284.86 162.87 289.55C162.23 294.24 150.47 302.95 137.07 303.29C123.67 303.63 113.94 297.29 109.25 280.16C104.56 263.03 106.42 237 106.42 237C106.42 237 108.12 229.33 110.68 227.62" stroke="#263238" stroke-width="1.193" stroke-linecap="round" stroke-linejoin="round"/>
<path d="M146.78 267.09C146.78 267.09 149.4 279.3 135.94 286" stroke="#263238" stroke-width="1.193" stroke-linecap="round" stroke-linejoin="round"/>
<path d="M80.1001 54.2499C80.1001 51.4699 81.3801 49.4199 84.2701 49.4199C87.1601 49.4199 88.5001 51.4199 88.5001 54.2499V63.9999C88.5001 66.7799 87.2101 68.8299 84.2701 68.8299C81.3301 68.8299 80.1001 66.8299 80.1001 63.9999V54.2499ZM81.3501 64.0899C81.3501 66.1699 82.1701 67.6899 84.2701 67.6899C86.3701 67.6899 87.2701 66.1699 87.2701 64.0899V54.1699C87.2701 52.0999 86.4301 50.5699 84.2701 50.5699C82.1101 50.5699 81.3501 52.0999 81.3501 54.1699V64.0899Z" fill="#263238"/>
<path d="M90.49 54.2499C90.49 51.4699 91.77 49.4199 94.66 49.4199C97.55 49.4199 98.89 51.4199 98.89 54.2499V63.9999C98.89 66.7799 97.61 68.8299 94.66 68.8299C91.71 68.8299 90.49 66.8299 90.49 63.9999V54.2499ZM91.74 64.0899C91.74 66.1699 92.56 67.6899 94.66 67.6899C96.76 67.6899 97.66 66.1699 97.66 64.0899V54.1699C97.66 52.0999 96.82 50.5699 94.66 50.5699C92.5 50.5699 91.74 52.0999 91.74 54.1699V64.0899Z" fill="#263238"/>
<path d="M104.92 49.59C107.86 49.59 109.01 51.44 109.01 54.22V56.3C109.01 59.3 107.61 60.82 104.59 60.82H102.22V68.68H101V49.59H104.92ZM104.59 59.68C106.8 59.68 107.75 58.68 107.75 56.38V54.14C107.75 52.07 107.04 50.73 104.92 50.73H102.22V59.73L104.59 59.68Z" fill="#263238"/>
<path d="M118.93 54.2V54.6H117.73V54.11C117.73 52.11 116.97 50.57 114.9 50.57C112.83 50.57 112.06 52.07 112.06 54.09C112.06 58.72 118.96 58.8 118.96 64.09C118.96 66.84 117.76 68.86 114.84 68.86C111.92 68.86 110.73 66.86 110.73 64.09V63.09H111.93V64.15C111.93 66.15 112.72 67.67 114.82 67.67C116.92 67.67 117.71 66.19 117.71 64.15C117.71 59.57 110.81 59.49 110.81 54.15C110.81 51.29 112.06 49.43 114.87 49.4C117.68 49.37 118.93 51.44 118.93 54.2Z" fill="#263238"/>
<path d="M122.07 66.28V68.68H120.85V66.28H122.07Z" fill="#263238"/>
<path d="M125.48 66.28V68.68H124.26V66.28H125.48Z" fill="#263238"/>
<path d="M128.89 66.28V68.68H127.66V66.28H128.89Z" fill="#263238"/>
<path d="M84.1302 77.36C87.1302 77.36 88.2202 79.21 88.2202 82V84.07C88.2202 87.07 86.8302 88.6 83.8102 88.6H81.4302V96.45H80.1802V77.36H84.1302ZM83.8102 87.45C86.0102 87.45 86.9702 86.45 86.9702 84.15V81.91C86.9702 79.84 86.2602 78.51 84.1302 78.51H81.4302V87.45H83.8102Z" fill="#263238"/>
<path d="M91.5802 92.22L90.5802 96.45H89.4302L93.6002 77.33H95.4302L99.6802 96.45H98.4302L97.4302 92.22H91.5802ZM91.7702 91.13H97.3302L94.5202 78.78L91.7702 91.13Z" fill="#263238"/>
<path d="M109.77 81.9999V83.4199H108.57V81.9199C108.57 79.9199 107.78 78.3199 105.68 78.3199C103.58 78.3199 102.79 79.8799 102.79 81.9199V91.8499C102.79 93.8499 103.58 95.4199 105.68 95.4199C107.78 95.4199 108.57 93.8899 108.57 91.8499V87.7299H106V86.5899H109.73V91.7699C109.73 94.5199 108.53 96.5899 105.61 96.5899C102.69 96.5899 101.5 94.5199 101.5 91.7699V81.9999C101.5 79.2499 102.7 77.1799 105.61 77.1799C108.52 77.1799 109.77 79.2699 109.77 81.9999Z" fill="#263238"/>
<path d="M118.34 86.2V87.34H113.13V95.34H119.4V96.49H111.87V77.36H119.4V78.51H113.13V86.2H118.34Z" fill="#263238"/>
<path d="M126.82 96.45H125.67V77.36H127.31L133 93.48V77.36H134.14V96.45H132.75L126.75 79.45L126.82 96.45Z" fill="#263238"/>
<path d="M136.26 81.9999C136.26 79.2199 137.54 77.1799 140.43 77.1799C143.32 77.1799 144.66 79.1799 144.66 81.9999V91.7699C144.66 94.5499 143.37 96.5899 140.43 96.5899C137.49 96.5899 136.26 94.5899 136.26 91.7699V81.9999ZM137.51 91.8499C137.51 93.9199 138.33 95.4499 140.43 95.4499C142.53 95.4499 143.43 93.9199 143.43 91.8499V81.9199C143.43 79.8499 142.59 78.3199 140.43 78.3199C138.27 78.3199 137.51 79.8499 137.51 81.9199V91.8499Z" fill="#263238"/>
<path d="M150 96.45V78.51H146.13V77.36H155.13V78.51H151.23V96.45H150Z" fill="#263238"/>
<path d="M167.08 86.66V87.8H162.14V96.45H160.89V77.36H168.14V78.51H162.14V86.66H167.08Z" fill="#263238"/>
<path d="M170 81.9999C170 79.2199 171.28 77.1799 174.17 77.1799C177.06 77.1799 178.4 79.1799 178.4 81.9999V91.7699C178.4 94.5499 177.12 96.5899 174.17 96.5899C171.22 96.5899 170 94.5899 170 91.7699V81.9999ZM171.25 91.8499C171.25 93.9199 172.07 95.4499 174.17 95.4499C176.27 95.4499 177.17 93.9199 177.17 91.8499V81.9199C177.17 79.8499 176.33 78.3199 174.17 78.3199C172.01 78.3199 171.25 79.8499 171.25 81.9199V91.8499Z" fill="#263238"/>
<path d="M181.64 91.84C181.64 93.84 182.41 95.47 184.51 95.47C186.61 95.47 187.37 93.89 187.37 91.84V77.36H188.54V91.79C188.54 94.51 187.4 96.61 184.48 96.61C181.56 96.61 180.39 94.51 180.39 91.79V77.36H181.64V91.84Z" fill="#263238"/>
<path d="M191.84 96.45H190.7V77.36H192.33L198.06 93.48V77.36H199.21V96.45H197.81L191.81 79.45L191.84 96.45Z" fill="#263238"/>
<path d="M205.56 77.36C208.51 77.36 209.79 79.3 209.79 82.11V91.7C209.79 94.51 208.51 96.45 205.56 96.45H201.36V77.36H205.56ZM205.56 95.3C207.69 95.3 208.56 93.86 208.56 91.76V82.05C208.56 79.95 207.66 78.51 205.56 78.51H202.65V95.3H205.56Z" fill="#263238"/>
<path d="M269 273.13L282.61 241H290.76V273.13H294.29V279.92H290.76V288.55H283.42V279.92H269V273.13ZM283.4 273.13V255.27L275.86 273.13H283.4Z" fill="#263238"/>
<path d="M297.08 252.41C297.08 244.81 301.08 240.41 308.42 240.41C315.76 240.41 319.76 244.76 319.76 252.41V277.13C319.76 284.74 315.76 289.13 308.42 289.13C301.08 289.13 297.08 284.78 297.08 277.13V252.41ZM304.55 277.61C304.55 281.01 306.04 282.3 308.42 282.3C310.8 282.3 312.29 281.01 312.29 277.61V251.94C312.29 248.54 310.79 247.25 308.42 247.25C306.05 247.25 304.55 248.54 304.55 251.94V277.61Z" fill="#263238"/>
<path d="M322.82 273.13L336.4 241H344.55V273.13H348.08V279.92H344.55V288.55H337.21V279.92H322.82V273.13ZM337.21 273.13V255.27L329.68 273.13H337.21Z" fill="#263238"/>
</svg>

